<?xml version="1.0" encoding="UTF-8"?>
<svg width="400" height="260" viewBox="0 0 400 260" xmlns="http://www.w3.org/2000/svg">
  <defs>
    <linearGradient id="bg" x1="0%" y1="0%" x2="0%" y2="100%">
      <stop offset="0%" stop-color="#e0f2ff"/>
      <stop offset="100%" stop-color="#f8fbff"/>
    </linearGradient>
  </defs>
  <rect width="400" height="260" fill="url(#bg)" rx="20"/>
  <rect x="70" y="90" width="260" height="130" rx="10" fill="#fff" stroke="#d2e2f5" stroke-width="4"/>
  <rect x="150" y="40" width="100" height="80" rx="8" fill="#fff" stroke="#d2e2f5" stroke-width="4"/>
  <rect x="105" y="140" width="50" height="80" fill="#eff5ff" stroke="#c7d8ef" stroke-width="3"/>
  <rect x="245" y="140" width="50" height="80" fill="#eff5ff" stroke="#c7d8ef" stroke-width="3"/>
  <rect x="185" y="140" width="30" height="80" fill="#94a3ff" rx="4"/>
  <rect x="172" y="190" width="56" height="40" rx="8" fill="#fff"/>
  <rect x="162" y="190" width="76" height="18" rx="9" fill="#dee8ff"/>
  <rect x="190" y="205" width="20" height="25" fill="#94a3ff"/>
  <rect x="135" y="70" width="130" height="30" rx="6" fill="#f3f7ff"/>
  <g fill="#0f62fe">
    <rect x="195" y="58" width="12" height="54" rx="4"/>
    <rect x="175" y="78" width="52" height="12" rx="4"/>
  </g>
  <circle cx="330" cy="210" r="24" fill="#fff" stroke="#94a3ff" stroke-width="4"/>
  <path d="M330 194v32M314 210h32" stroke="#0f62fe" stroke-width="6" stroke-linecap="round"/>
</svg>

